<?xml version="1.0" encoding="utf-8"?>
<!-- Generator: Adobe Illustrator 25.0.0, SVG Export Plug-In . SVG Version: 6.00 Build 0)  -->
<svg version="1.1" id="Layer_2" xmlns="http://www.w3.org/2000/svg" xmlns:xlink="http://www.w3.org/1999/xlink" x="0px" y="0px"
	 viewBox="0 0 1000 800" style="enable-background:new 0 0 1000 800;" xml:space="preserve">
<style type="text/css">
	.st0{fill:#FFFFFF;}
</style>
<path id="XMLID_40_" class="st0" d="M166.07,506.67l86.67-95.33l35.33-2.67l56-60.67l54,46l60-61.33l15.33-1l39.33-49l124.67,136
	l20-20.67l147.33,119.33l-151.01-74.81l-38.32,18.14c0,0-62-29.33-64-30.67s-38-21.33-42.67-21.33c-4.67,0-38.67,20.67-38.67,20.67
	l22-44l22.67-22l-8-22.67L494.07,326L352.74,454.67l2-18.67l2.67-26.67l10-20.67l-21.33-20l-51.33,52l-34,0.67L166.07,506.67z"/>
</svg>
